<?xml version="1.0" encoding="UTF-8" standalone="no"?>
<!DOCTYPE svg PUBLIC "-//W3C//DTD SVG 1.1//EN"
 "http://www.w3.org/Graphics/SVG/1.1/DTD/svg11.dtd">
<!-- Generated by graphviz version 14.1.1 (20251213.1925)
 -->
<!-- Title: InheritanceTree Pages: 1 -->
<svg width="235pt" height="573pt"
 viewBox="0.00 0.00 235.00 573.00" xmlns="http://www.w3.org/2000/svg" xmlns:xlink="http://www.w3.org/1999/xlink">
<g id="graph0" class="graph" transform="scale(1 1) rotate(0) translate(4 568.5)">
<title>InheritanceTree</title>
<polygon fill="white" stroke="none" points="-4,4 -4,-568.5 230.75,-568.5 230.75,4 -4,4"/>
<text xml:space="preserve" text-anchor="middle" x="113.38" y="-7.2" font-family="Times New Roman,serif" font-size="14.00">simple_vulkan &#45; Inheritance Hierarchy</text>
<!-- SIMPLE_VULKAN -->
<g id="node1" class="node">
<title>SIMPLE_VULKAN</title>
<path fill="none" stroke="black" d="M165.62,-60.5C165.62,-60.5 61.12,-60.5 61.12,-60.5 55.13,-60.5 49.12,-54.5 49.12,-48.5 49.12,-48.5 49.12,-36.5 49.12,-36.5 49.12,-30.5 55.12,-24.5 61.12,-24.5 61.12,-24.5 165.62,-24.5 165.62,-24.5 171.62,-24.5 177.62,-30.5 177.62,-36.5 177.62,-36.5 177.62,-48.5 177.62,-48.5 177.62,-54.5 171.62,-60.5 165.62,-60.5"/>
<text xml:space="preserve" text-anchor="middle" x="113.38" y="-37.45" font-family="Times New Roman,serif" font-size="14.00">SIMPLE_VULKAN</text>
</g>
<!-- VULKAN_BUFFER -->
<g id="node2" class="node">
<title>VULKAN_BUFFER</title>
<path fill="none" stroke="black" d="M166.75,-132.5C166.75,-132.5 60,-132.5 60,-132.5 54,-132.5 48,-126.5 48,-120.5 48,-120.5 48,-108.5 48,-108.5 48,-102.5 54,-96.5 60,-96.5 60,-96.5 166.75,-96.5 166.75,-96.5 172.75,-96.5 178.75,-102.5 178.75,-108.5 178.75,-108.5 178.75,-120.5 178.75,-120.5 178.75,-126.5 172.75,-132.5 166.75,-132.5"/>
<text xml:space="preserve" text-anchor="middle" x="113.38" y="-109.45" font-family="Times New Roman,serif" font-size="14.00">VULKAN_BUFFER</text>
</g>
<!-- VULKAN_CONTEXT -->
<g id="node3" class="node">
<title>VULKAN_CONTEXT</title>
<path fill="none" stroke="black" d="M172.75,-204.5C172.75,-204.5 54,-204.5 54,-204.5 48,-204.5 42,-198.5 42,-192.5 42,-192.5 42,-180.5 42,-180.5 42,-174.5 48,-168.5 54,-168.5 54,-168.5 172.75,-168.5 172.75,-168.5 178.75,-168.5 184.75,-174.5 184.75,-180.5 184.75,-180.5 184.75,-192.5 184.75,-192.5 184.75,-198.5 178.75,-204.5 172.75,-204.5"/>
<text xml:space="preserve" text-anchor="middle" x="113.38" y="-181.45" font-family="Times New Roman,serif" font-size="14.00">VULKAN_CONTEXT</text>
</g>
<!-- VULKAN_IMAGE -->
<g id="node4" class="node">
<title>VULKAN_IMAGE</title>
<path fill="none" stroke="black" d="M163.75,-276.5C163.75,-276.5 63,-276.5 63,-276.5 57,-276.5 51,-270.5 51,-264.5 51,-264.5 51,-252.5 51,-252.5 51,-246.5 57,-240.5 63,-240.5 63,-240.5 163.75,-240.5 163.75,-240.5 169.75,-240.5 175.75,-246.5 175.75,-252.5 175.75,-252.5 175.75,-264.5 175.75,-264.5 175.75,-270.5 169.75,-276.5 163.75,-276.5"/>
<text xml:space="preserve" text-anchor="middle" x="113.38" y="-253.45" font-family="Times New Roman,serif" font-size="14.00">VULKAN_IMAGE</text>
</g>
<!-- VULKAN_PIPELINE -->
<g id="node5" class="node">
<title>VULKAN_PIPELINE</title>
<path fill="none" stroke="black" d="M170.5,-348.5C170.5,-348.5 56.25,-348.5 56.25,-348.5 50.25,-348.5 44.25,-342.5 44.25,-336.5 44.25,-336.5 44.25,-324.5 44.25,-324.5 44.25,-318.5 50.25,-312.5 56.25,-312.5 56.25,-312.5 170.5,-312.5 170.5,-312.5 176.5,-312.5 182.5,-318.5 182.5,-324.5 182.5,-324.5 182.5,-336.5 182.5,-336.5 182.5,-342.5 176.5,-348.5 170.5,-348.5"/>
<text xml:space="preserve" text-anchor="middle" x="113.38" y="-325.45" font-family="Times New Roman,serif" font-size="14.00">VULKAN_PIPELINE</text>
</g>
<!-- VULKAN_SHADER -->
<g id="node6" class="node">
<title>VULKAN_SHADER</title>
<path fill="none" stroke="black" d="M168.25,-420.5C168.25,-420.5 58.5,-420.5 58.5,-420.5 52.5,-420.5 46.5,-414.5 46.5,-408.5 46.5,-408.5 46.5,-396.5 46.5,-396.5 46.5,-390.5 52.5,-384.5 58.5,-384.5 58.5,-384.5 168.25,-384.5 168.25,-384.5 174.25,-384.5 180.25,-390.5 180.25,-396.5 180.25,-396.5 180.25,-408.5 180.25,-408.5 180.25,-414.5 174.25,-420.5 168.25,-420.5"/>
<text xml:space="preserve" text-anchor="middle" x="113.38" y="-397.45" font-family="Times New Roman,serif" font-size="14.00">VULKAN_SHADER</text>
</g>
<!-- LIB_TESTS -->
<g id="node7" class="node">
<title>LIB_TESTS</title>
<path fill="none" stroke="black" d="M143.5,-492.5C143.5,-492.5 83.25,-492.5 83.25,-492.5 77.25,-492.5 71.25,-486.5 71.25,-480.5 71.25,-480.5 71.25,-468.5 71.25,-468.5 71.25,-462.5 77.25,-456.5 83.25,-456.5 83.25,-456.5 143.5,-456.5 143.5,-456.5 149.5,-456.5 155.5,-462.5 155.5,-468.5 155.5,-468.5 155.5,-480.5 155.5,-480.5 155.5,-486.5 149.5,-492.5 143.5,-492.5"/>
<text xml:space="preserve" text-anchor="middle" x="113.38" y="-469.45" font-family="Times New Roman,serif" font-size="14.00">LIB_TESTS</text>
</g>
<!-- TEST_APP -->
<g id="node8" class="node">
<title>TEST_APP</title>
<path fill="none" stroke="black" d="M141.25,-564.5C141.25,-564.5 85.5,-564.5 85.5,-564.5 79.5,-564.5 73.5,-558.5 73.5,-552.5 73.5,-552.5 73.5,-540.5 73.5,-540.5 73.5,-534.5 79.5,-528.5 85.5,-528.5 85.5,-528.5 141.25,-528.5 141.25,-528.5 147.25,-528.5 153.25,-534.5 153.25,-540.5 153.25,-540.5 153.25,-552.5 153.25,-552.5 153.25,-558.5 147.25,-564.5 141.25,-564.5"/>
<text xml:space="preserve" text-anchor="middle" x="113.38" y="-541.45" font-family="Times New Roman,serif" font-size="14.00">TEST_APP</text>
</g>
</g>
</svg>
