<?xml version="1.0" encoding="UTF-8" standalone="no"?>
<!DOCTYPE svg PUBLIC "-//W3C//DTD SVG 1.1//EN"
 "http://www.w3.org/Graphics/SVG/1.1/DTD/svg11.dtd">
<!-- Generated by graphviz version 14.1.1 (20251213.1925)
 -->
<!-- Title: ContractCoverage Pages: 1 -->
<svg width="816pt" height="858pt"
 viewBox="48.00 48.00 768.00 810.00" xmlns="http://www.w3.org/2000/svg" xmlns:xlink="http://www.w3.org/1999/xlink">
<g id="graph0" class="graph" transform="scale(0.559821 0.559821) rotate(0) translate(89.74 1442.99)">
<title>ContractCoverage</title>
<polygon fill="white" stroke="none" points="-4,4 -4,-1357.25 1282.12,-1357.25 1282.12,4 -4,4"/>
<text xml:space="preserve" text-anchor="middle" x="639.06" y="-1339.75" font-family="Times New Roman,serif" font-size="10.00">simple_vulkan &#45; Contract Coverage</text>
<g id="clust1" class="cluster">
<title>cluster_SIMPLE_VULKAN</title>
<polygon fill="white" stroke="black" points="180.12,-827.5 180.12,-948 312.12,-948 312.12,-827.5 180.12,-827.5"/>
<text xml:space="preserve" text-anchor="middle" x="246.12" y="-930.7" font-family="Times New Roman,serif" font-size="14.00">SIMPLE_VULKAN</text>
</g>
<g id="clust2" class="cluster">
<title>cluster_VULKAN_BUFFER</title>
<polygon fill="white" stroke="black" points="864.13,-143.5 864.13,-552 1278.13,-552 1278.13,-143.5 864.13,-143.5"/>
<text xml:space="preserve" text-anchor="middle" x="1071.13" y="-534.7" font-family="Times New Roman,serif" font-size="14.00">VULKAN_BUFFER</text>
</g>
<g id="clust3" class="cluster">
<title>cluster_VULKAN_CONTEXT</title>
<polygon fill="white" stroke="black" points="360.12,-179.5 360.12,-648 786.12,-648 786.12,-179.5 360.12,-179.5"/>
<text xml:space="preserve" text-anchor="middle" x="573.12" y="-630.7" font-family="Times New Roman,serif" font-size="14.00">VULKAN_CONTEXT</text>
</g>
<g id="clust4" class="cluster">
<title>cluster_VULKAN_IMAGE</title>
<polygon fill="white" stroke="black" points="396.12,-719.5 396.12,-1122 780.12,-1122 780.12,-719.5 396.12,-719.5"/>
<text xml:space="preserve" text-anchor="middle" x="588.12" y="-1104.7" font-family="Times New Roman,serif" font-size="14.00">VULKAN_IMAGE</text>
</g>
<g id="clust5" class="cluster">
<title>cluster_VULKAN_PIPELINE</title>
<polygon fill="white" stroke="black" points="864.13,-611.5 864.13,-1014 1260.13,-1014 1260.13,-611.5 864.13,-611.5"/>
<text xml:space="preserve" text-anchor="middle" x="1062.13" y="-996.7" font-family="Times New Roman,serif" font-size="14.00">VULKAN_PIPELINE</text>
</g>
<g id="clust6" class="cluster">
<title>cluster_VULKAN_SHADER</title>
<polygon fill="white" stroke="black" points="36.12,-431.5 36.12,-708 280.12,-708 280.12,-431.5 36.12,-431.5"/>
<text xml:space="preserve" text-anchor="middle" x="158.12" y="-690.7" font-family="Times New Roman,serif" font-size="14.00">VULKAN_SHADER</text>
</g>
<g id="clust7" class="cluster">
<title>cluster_LIB_TESTS</title>
<polygon fill="white" stroke="black" points="0,-1007.5 0,-1334 308.25,-1334 308.25,-1007.5 0,-1007.5"/>
<text xml:space="preserve" text-anchor="middle" x="154.12" y="-1316.7" font-family="Times New Roman,serif" font-size="14.00">LIB_TESTS</text>
</g>
<g id="clust8" class="cluster">
<title>cluster_TEST_APP</title>
<polygon fill="white" stroke="black" points="575.62,0 575.62,-115.5 694.62,-115.5 694.62,0 575.62,0"/>
<text xml:space="preserve" text-anchor="middle" x="635.12" y="-98.2" font-family="Times New Roman,serif" font-size="14.00">TEST_APP</text>
</g>
<g id="clust9" class="cluster">
<title>cluster_legend</title>
<polygon fill="lightyellow" stroke="black" points="71.75,-143.62 71.75,-339.88 292.5,-339.88 292.5,-143.62 71.75,-143.62"/>
<text xml:space="preserve" text-anchor="middle" x="182.12" y="-326.38" font-family="Times New Roman,serif" font-size="10.00">Legend</text>
</g>
<!-- SIMPLE_VULKAN_create_context -->
<g id="node1" class="node">
<title>SIMPLE_VULKAN_create_context</title>
<polygon fill="lightgray" stroke="black" points="256.12,-863.5 180.12,-863.5 180.12,-827.5 256.12,-827.5 256.12,-863.5"/>
<text xml:space="preserve" text-anchor="middle" x="218.12" y="-841.62" font-family="Times New Roman,serif" font-size="10.00">create_context</text>
</g>
<!-- SIMPLE_VULKAN_make -->
<g id="node2" class="node">
<title>SIMPLE_VULKAN_make</title>
<polygon fill="lightgray" stroke="black" points="312.12,-923.5 258.12,-923.5 258.12,-887.5 312.12,-887.5 312.12,-923.5"/>
<text xml:space="preserve" text-anchor="middle" x="285.12" y="-901.62" font-family="Times New Roman,serif" font-size="10.00">make</text>
</g>
<!-- VULKAN_BUFFER_make -->
<g id="node3" class="node">
<title>VULKAN_BUFFER_make</title>
<polygon fill="palegreen" stroke="black" points="918.13,-527.5 864.13,-527.5 864.13,-491.5 918.13,-491.5 918.13,-527.5"/>
<text xml:space="preserve" text-anchor="middle" x="891.13" y="-505.63" font-family="Times New Roman,serif" font-size="10.00">make</text>
</g>
<!-- VULKAN_BUFFER_handle -->
<g id="node4" class="node">
<title>VULKAN_BUFFER_handle</title>
<polygon fill="lightgray" stroke="black" points="1278.13,-239.5 1224.13,-239.5 1224.13,-203.5 1278.13,-203.5 1278.13,-239.5"/>
<text xml:space="preserve" text-anchor="middle" x="1251.13" y="-217.63" font-family="Times New Roman,serif" font-size="10.00">handle</text>
</g>
<!-- VULKAN_BUFFER_context -->
<g id="node5" class="node">
<title>VULKAN_BUFFER_context</title>
<polygon fill="lightgray" stroke="black" points="1266.13,-179.5 1212.13,-179.5 1212.13,-143.5 1266.13,-143.5 1266.13,-179.5"/>
<text xml:space="preserve" text-anchor="middle" x="1239.13" y="-157.63" font-family="Times New Roman,serif" font-size="10.00">context</text>
</g>
<!-- VULKAN_BUFFER_size -->
<g id="node6" class="node">
<title>VULKAN_BUFFER_size</title>
<polygon fill="lightgray" stroke="black" points="936.13,-293.5 882.13,-293.5 882.13,-257.5 936.13,-257.5 936.13,-293.5"/>
<text xml:space="preserve" text-anchor="middle" x="909.13" y="-271.62" font-family="Times New Roman,serif" font-size="10.00">size</text>
</g>
<!-- VULKAN_BUFFER_usage -->
<g id="node7" class="node">
<title>VULKAN_BUFFER_usage</title>
<polygon fill="lightgray" stroke="black" points="1254.12,-503.5 1200.12,-503.5 1200.12,-467.5 1254.12,-467.5 1254.12,-503.5"/>
<text xml:space="preserve" text-anchor="middle" x="1227.12" y="-481.63" font-family="Times New Roman,serif" font-size="10.00">usage</text>
</g>
<!-- VULKAN_BUFFER_is_valid -->
<g id="node8" class="node">
<title>VULKAN_BUFFER_is_valid</title>
<polygon fill="lightgray" stroke="black" points="966.12,-353.5 912.12,-353.5 912.12,-317.5 966.12,-317.5 966.12,-353.5"/>
<text xml:space="preserve" text-anchor="middle" x="939.12" y="-331.63" font-family="Times New Roman,serif" font-size="10.00">is_valid</text>
</g>
<!-- VULKAN_BUFFER_Buffer_storage -->
<g id="node9" class="node">
<title>VULKAN_BUFFER_Buffer_storage</title>
<polygon fill="lightgray" stroke="black" points="1018.13,-473.5 942.13,-473.5 942.13,-437.5 1018.13,-437.5 1018.13,-473.5"/>
<text xml:space="preserve" text-anchor="middle" x="980.13" y="-451.62" font-family="Times New Roman,serif" font-size="10.00">Buffer_storage</text>
</g>
<!-- VULKAN_BUFFER_x01 -->
<g id="node10" class="node">
<title>VULKAN_BUFFER_x01</title>
<polygon fill="lightgray" stroke="black" points="1110.12,-215.5 1056.12,-215.5 1056.12,-179.5 1110.12,-179.5 1110.12,-215.5"/>
<text xml:space="preserve" text-anchor="middle" x="1083.12" y="-193.63" font-family="Times New Roman,serif" font-size="10.00">x01</text>
</g>
<!-- VULKAN_BUFFER_Buffer_uniform -->
<g id="node11" class="node">
<title>VULKAN_BUFFER_Buffer_uniform</title>
<polygon fill="lightgray" stroke="black" points="1116.63,-473.5 1037.63,-473.5 1037.63,-437.5 1116.63,-437.5 1116.63,-473.5"/>
<text xml:space="preserve" text-anchor="middle" x="1077.13" y="-451.62" font-family="Times New Roman,serif" font-size="10.00">Buffer_uniform</text>
</g>
<!-- VULKAN_BUFFER_x02 -->
<g id="node12" class="node">
<title>VULKAN_BUFFER_x02</title>
<polygon fill="lightgray" stroke="black" points="1188.13,-215.5 1134.13,-215.5 1134.13,-179.5 1188.13,-179.5 1188.13,-215.5"/>
<text xml:space="preserve" text-anchor="middle" x="1161.13" y="-193.63" font-family="Times New Roman,serif" font-size="10.00">x02</text>
</g>
<!-- VULKAN_BUFFER_Buffer_transfer -->
<g id="node13" class="node">
<title>VULKAN_BUFFER_Buffer_transfer</title>
<polygon fill="lightgray" stroke="black" points="1036.5,-263.5 959.75,-263.5 959.75,-227.5 1036.5,-227.5 1036.5,-263.5"/>
<text xml:space="preserve" text-anchor="middle" x="998.13" y="-241.63" font-family="Times New Roman,serif" font-size="10.00">Buffer_transfer</text>
</g>
<!-- VULKAN_BUFFER_x04 -->
<g id="node14" class="node">
<title>VULKAN_BUFFER_x04</title>
<polygon fill="lightgray" stroke="black" points="954.13,-413.5 900.13,-413.5 900.13,-377.5 954.13,-377.5 954.13,-413.5"/>
<text xml:space="preserve" text-anchor="middle" x="927.13" y="-391.62" font-family="Times New Roman,serif" font-size="10.00">x04</text>
</g>
<!-- VULKAN_BUFFER_upload -->
<g id="node15" class="node">
<title>VULKAN_BUFFER_upload</title>
<polygon fill="khaki" stroke="black" points="954.13,-203.5 900.13,-203.5 900.13,-167.5 954.13,-167.5 954.13,-203.5"/>
<text xml:space="preserve" text-anchor="middle" x="927.13" y="-181.63" font-family="Times New Roman,serif" font-size="10.00">upload</text>
</g>
<!-- VULKAN_BUFFER_download -->
<g id="node16" class="node">
<title>VULKAN_BUFFER_download</title>
<polygon fill="khaki" stroke="black" points="1034.75,-203.5 977.5,-203.5 977.5,-167.5 1034.75,-167.5 1034.75,-203.5"/>
<text xml:space="preserve" text-anchor="middle" x="1006.13" y="-181.63" font-family="Times New Roman,serif" font-size="10.00">download</text>
</g>
<!-- VULKAN_BUFFER_dispose -->
<g id="node17" class="node">
<title>VULKAN_BUFFER_dispose</title>
<polygon fill="khaki" stroke="black" points="1248.13,-335.5 1194.13,-335.5 1194.13,-299.5 1248.13,-299.5 1248.13,-335.5"/>
<text xml:space="preserve" text-anchor="middle" x="1221.13" y="-313.63" font-family="Times New Roman,serif" font-size="10.00">dispose</text>
</g>
<!-- VULKAN_BUFFER_svk_create_buffer -->
<g id="node18" class="node">
<title>VULKAN_BUFFER_svk_create_buffer</title>
<polygon fill="lightcoral" stroke="black" points="1204.5,-275.5 1115.75,-275.5 1115.75,-239.5 1204.5,-239.5 1204.5,-275.5"/>
<text xml:space="preserve" text-anchor="middle" x="1160.12" y="-253.62" font-family="Times New Roman,serif" font-size="10.00">svk_create_buffer</text>
</g>
<!-- VULKAN_BUFFER_svk_upload_buffer -->
<g id="node19" class="node">
<title>VULKAN_BUFFER_svk_upload_buffer</title>
<polygon fill="lightcoral" stroke="black" points="1172.75,-383.5 1079.5,-383.5 1079.5,-347.5 1172.75,-347.5 1172.75,-383.5"/>
<text xml:space="preserve" text-anchor="middle" x="1126.12" y="-361.62" font-family="Times New Roman,serif" font-size="10.00">svk_upload_buffer</text>
</g>
<!-- VULKAN_BUFFER_svk_download_buffer -->
<g id="node20" class="node">
<title>VULKAN_BUFFER_svk_download_buffer</title>
<polygon fill="lightcoral" stroke="black" points="1096.12,-323.5 990.12,-323.5 990.12,-287.5 1096.12,-287.5 1096.12,-323.5"/>
<text xml:space="preserve" text-anchor="middle" x="1043.12" y="-301.63" font-family="Times New Roman,serif" font-size="10.00">svk_download_buffer</text>
</g>
<!-- VULKAN_BUFFER_svk_buffer_size -->
<g id="node21" class="node">
<title>VULKAN_BUFFER_svk_buffer_size</title>
<polygon fill="lightcoral" stroke="black" points="1058.38,-413.5 977.88,-413.5 977.88,-377.5 1058.38,-377.5 1058.38,-413.5"/>
<text xml:space="preserve" text-anchor="middle" x="1018.13" y="-391.62" font-family="Times New Roman,serif" font-size="10.00">svk_buffer_size</text>
</g>
<!-- VULKAN_BUFFER_svk_free_buffer -->
<g id="node22" class="node">
<title>VULKAN_BUFFER_svk_free_buffer</title>
<polygon fill="lightcoral" stroke="black" points="1219,-443.5 1139.25,-443.5 1139.25,-407.5 1219,-407.5 1219,-443.5"/>
<text xml:space="preserve" text-anchor="middle" x="1179.13" y="-421.63" font-family="Times New Roman,serif" font-size="10.00">svk_free_buffer</text>
</g>
<!-- VULKAN_CONTEXT_make -->
<g id="node23" class="node">
<title>VULKAN_CONTEXT_make</title>
<polygon fill="khaki" stroke="black" points="672.12,-623.5 618.12,-623.5 618.12,-587.5 672.12,-587.5 672.12,-623.5"/>
<text xml:space="preserve" text-anchor="middle" x="645.12" y="-601.62" font-family="Times New Roman,serif" font-size="10.00">make</text>
</g>
<!-- VULKAN_CONTEXT_handle -->
<g id="node24" class="node">
<title>VULKAN_CONTEXT_handle</title>
<polygon fill="lightgray" stroke="black" points="594.12,-215.5 540.12,-215.5 540.12,-179.5 594.12,-179.5 594.12,-215.5"/>
<text xml:space="preserve" text-anchor="middle" x="567.12" y="-193.62" font-family="Times New Roman,serif" font-size="10.00">handle</text>
</g>
<!-- VULKAN_CONTEXT_is_valid -->
<g id="node25" class="node">
<title>VULKAN_CONTEXT_is_valid</title>
<polygon fill="lightgray" stroke="black" points="786.12,-515.5 732.12,-515.5 732.12,-479.5 786.12,-479.5 786.12,-515.5"/>
<text xml:space="preserve" text-anchor="middle" x="759.12" y="-493.62" font-family="Times New Roman,serif" font-size="10.00">is_valid</text>
</g>
<!-- VULKAN_CONTEXT_device_name -->
<g id="node26" class="node">
<title>VULKAN_CONTEXT_device_name</title>
<polygon fill="palegreen" stroke="black" points="610.12,-275.5 540.12,-275.5 540.12,-239.5 610.12,-239.5 610.12,-275.5"/>
<text xml:space="preserve" text-anchor="middle" x="575.12" y="-253.62" font-family="Times New Roman,serif" font-size="10.00">device_name</text>
</g>
<!-- VULKAN_CONTEXT_vendor_id -->
<g id="node27" class="node">
<title>VULKAN_CONTEXT_vendor_id</title>
<polygon fill="khaki" stroke="black" points="766.12,-233.5 708.12,-233.5 708.12,-197.5 766.12,-197.5 766.12,-233.5"/>
<text xml:space="preserve" text-anchor="middle" x="737.12" y="-211.62" font-family="Times New Roman,serif" font-size="10.00">vendor_id</text>
</g>
<!-- VULKAN_CONTEXT_is_discrete_gpu -->
<g id="node28" class="node">
<title>VULKAN_CONTEXT_is_discrete_gpu</title>
<polygon fill="khaki" stroke="black" points="518.38,-335.5 437.88,-335.5 437.88,-299.5 518.38,-299.5 518.38,-335.5"/>
<text xml:space="preserve" text-anchor="middle" x="478.12" y="-313.62" font-family="Times New Roman,serif" font-size="10.00">is_discrete_gpu</text>
</g>
<!-- VULKAN_CONTEXT_max_workgroup_size -->
<g id="node29" class="node">
<title>VULKAN_CONTEXT_max_workgroup_size</title>
<polygon fill="khaki" stroke="black" points="644.38,-335.5 539.88,-335.5 539.88,-299.5 644.38,-299.5 644.38,-335.5"/>
<text xml:space="preserve" text-anchor="middle" x="592.12" y="-313.62" font-family="Times New Roman,serif" font-size="10.00">max_workgroup_size</text>
</g>
<!-- VULKAN_CONTEXT_Vendor_nvidia -->
<g id="node30" class="node">
<title>VULKAN_CONTEXT_Vendor_nvidia</title>
<polygon fill="lightgray" stroke="black" points="712.5,-515.5 635.75,-515.5 635.75,-479.5 712.5,-479.5 712.5,-515.5"/>
<text xml:space="preserve" text-anchor="middle" x="674.12" y="-493.62" font-family="Times New Roman,serif" font-size="10.00">Vendor_nvidia</text>
</g>
<!-- VULKAN_CONTEXT_x10DE -->
<g id="node31" class="node">
<title>VULKAN_CONTEXT_x10DE</title>
<polygon fill="lightgray" stroke="black" points="684.12,-233.5 630.12,-233.5 630.12,-197.5 684.12,-197.5 684.12,-233.5"/>
<text xml:space="preserve" text-anchor="middle" x="657.12" y="-211.62" font-family="Times New Roman,serif" font-size="10.00">x10DE</text>
</g>
<!-- VULKAN_CONTEXT_Vendor_amd -->
<g id="node32" class="node">
<title>VULKAN_CONTEXT_Vendor_amd</title>
<polygon fill="lightgray" stroke="black" points="613,-563.5 545.25,-563.5 545.25,-527.5 613,-527.5 613,-563.5"/>
<text xml:space="preserve" text-anchor="middle" x="579.12" y="-541.62" font-family="Times New Roman,serif" font-size="10.00">Vendor_amd</text>
</g>
<!-- VULKAN_CONTEXT_x1002 -->
<g id="node33" class="node">
<title>VULKAN_CONTEXT_x1002</title>
<polygon fill="lightgray" stroke="black" points="450.12,-275.5 396.12,-275.5 396.12,-239.5 450.12,-239.5 450.12,-275.5"/>
<text xml:space="preserve" text-anchor="middle" x="423.12" y="-253.62" font-family="Times New Roman,serif" font-size="10.00">x1002</text>
</g>
<!-- VULKAN_CONTEXT_Vendor_intel -->
<g id="node34" class="node">
<title>VULKAN_CONTEXT_Vendor_intel</title>
<polygon fill="lightgray" stroke="black" points="734.75,-293.5 665.5,-293.5 665.5,-257.5 734.75,-257.5 734.75,-293.5"/>
<text xml:space="preserve" text-anchor="middle" x="700.12" y="-271.62" font-family="Times New Roman,serif" font-size="10.00">Vendor_intel</text>
</g>
<!-- VULKAN_CONTEXT_x8086 -->
<g id="node35" class="node">
<title>VULKAN_CONTEXT_x8086</title>
<polygon fill="lightgray" stroke="black" points="444.12,-443.5 390.12,-443.5 390.12,-407.5 444.12,-407.5 444.12,-443.5"/>
<text xml:space="preserve" text-anchor="middle" x="417.12" y="-421.62" font-family="Times New Roman,serif" font-size="10.00">x8086</text>
</g>
<!-- VULKAN_CONTEXT_is_nvidia -->
<g id="node36" class="node">
<title>VULKAN_CONTEXT_is_nvidia</title>
<polygon fill="khaki" stroke="black" points="750.25,-575.5 696,-575.5 696,-539.5 750.25,-539.5 750.25,-575.5"/>
<text xml:space="preserve" text-anchor="middle" x="723.12" y="-553.62" font-family="Times New Roman,serif" font-size="10.00">is_nvidia</text>
</g>
<!-- VULKAN_CONTEXT_is_amd -->
<g id="node37" class="node">
<title>VULKAN_CONTEXT_is_amd</title>
<polygon fill="khaki" stroke="black" points="432.12,-581.5 378.12,-581.5 378.12,-545.5 432.12,-545.5 432.12,-581.5"/>
<text xml:space="preserve" text-anchor="middle" x="405.12" y="-559.62" font-family="Times New Roman,serif" font-size="10.00">is_amd</text>
</g>
<!-- VULKAN_CONTEXT_is_intel -->
<g id="node38" class="node">
<title>VULKAN_CONTEXT_is_intel</title>
<polygon fill="khaki" stroke="black" points="432.12,-521.5 378.12,-521.5 378.12,-485.5 432.12,-485.5 432.12,-521.5"/>
<text xml:space="preserve" text-anchor="middle" x="405.12" y="-499.62" font-family="Times New Roman,serif" font-size="10.00">is_intel</text>
</g>
<!-- VULKAN_CONTEXT_dispose -->
<g id="node39" class="node">
<title>VULKAN_CONTEXT_dispose</title>
<polygon fill="khaki" stroke="black" points="762.12,-455.5 708.12,-455.5 708.12,-419.5 762.12,-419.5 762.12,-455.5"/>
<text xml:space="preserve" text-anchor="middle" x="735.12" y="-433.62" font-family="Times New Roman,serif" font-size="10.00">dispose</text>
</g>
<!-- VULKAN_CONTEXT_svk_init -->
<g id="node40" class="node">
<title>VULKAN_CONTEXT_svk_init</title>
<polygon fill="lightcoral" stroke="black" points="414.12,-383.5 360.12,-383.5 360.12,-347.5 414.12,-347.5 414.12,-383.5"/>
<text xml:space="preserve" text-anchor="middle" x="387.12" y="-361.62" font-family="Times New Roman,serif" font-size="10.00">svk_init</text>
</g>
<!-- VULKAN_CONTEXT_svk_get_device_name -->
<g id="node41" class="node">
<title>VULKAN_CONTEXT_svk_get_device_name</title>
<polygon fill="lightcoral" stroke="black" points="682.88,-455.5 575.38,-455.5 575.38,-419.5 682.88,-419.5 682.88,-455.5"/>
<text xml:space="preserve" text-anchor="middle" x="629.12" y="-433.62" font-family="Times New Roman,serif" font-size="10.00">svk_get_device_name</text>
</g>
<!-- VULKAN_CONTEXT_svk_get_vendor_id -->
<g id="node42" class="node">
<title>VULKAN_CONTEXT_svk_get_vendor_id</title>
<polygon fill="lightcoral" stroke="black" points="724.87,-395.5 629.37,-395.5 629.37,-359.5 724.87,-359.5 724.87,-395.5"/>
<text xml:space="preserve" text-anchor="middle" x="677.12" y="-373.62" font-family="Times New Roman,serif" font-size="10.00">svk_get_vendor_id</text>
</g>
<!-- VULKAN_CONTEXT_svk_is_discrete_gpu -->
<g id="node43" class="node">
<title>VULKAN_CONTEXT_svk_is_discrete_gpu</title>
<polygon fill="lightcoral" stroke="black" points="556.12,-503.5 456.12,-503.5 456.12,-467.5 556.12,-467.5 556.12,-503.5"/>
<text xml:space="preserve" text-anchor="middle" x="506.12" y="-481.62" font-family="Times New Roman,serif" font-size="10.00">svk_is_discrete_gpu</text>
</g>
<!-- VULKAN_CONTEXT_svk_get_max_workgroup_size -->
<g id="node44" class="node">
<title>VULKAN_CONTEXT_svk_get_max_workgroup_size</title>
<polygon fill="lightcoral" stroke="black" points="610.12,-395.5 468.12,-395.5 468.12,-359.5 610.12,-359.5 610.12,-395.5"/>
<text xml:space="preserve" text-anchor="middle" x="539.12" y="-373.62" font-family="Times New Roman,serif" font-size="10.00">svk_get_max_workgroup_size</text>
</g>
<!-- VULKAN_CONTEXT_svk_cleanup -->
<g id="node45" class="node">
<title>VULKAN_CONTEXT_svk_cleanup</title>
<polygon fill="lightcoral" stroke="black" points="523,-563.5 455.25,-563.5 455.25,-527.5 523,-527.5 523,-563.5"/>
<text xml:space="preserve" text-anchor="middle" x="489.12" y="-541.62" font-family="Times New Roman,serif" font-size="10.00">svk_cleanup</text>
</g>
<!-- VULKAN_IMAGE_make -->
<g id="node46" class="node">
<title>VULKAN_IMAGE_make</title>
<polygon fill="palegreen" stroke="black" points="702.12,-755.5 648.12,-755.5 648.12,-719.5 702.12,-719.5 702.12,-755.5"/>
<text xml:space="preserve" text-anchor="middle" x="675.12" y="-733.62" font-family="Times New Roman,serif" font-size="10.00">make</text>
</g>
<!-- VULKAN_IMAGE_handle -->
<g id="node47" class="node">
<title>VULKAN_IMAGE_handle</title>
<polygon fill="lightgray" stroke="black" points="780.12,-875.5 726.12,-875.5 726.12,-839.5 780.12,-839.5 780.12,-875.5"/>
<text xml:space="preserve" text-anchor="middle" x="753.12" y="-853.62" font-family="Times New Roman,serif" font-size="10.00">handle</text>
</g>
<!-- VULKAN_IMAGE_context -->
<g id="node48" class="node">
<title>VULKAN_IMAGE_context</title>
<polygon fill="lightgray" stroke="black" points="768.12,-1097.5 714.12,-1097.5 714.12,-1061.5 768.12,-1061.5 768.12,-1097.5"/>
<text xml:space="preserve" text-anchor="middle" x="741.12" y="-1075.62" font-family="Times New Roman,serif" font-size="10.00">context</text>
</g>
<!-- VULKAN_IMAGE_width -->
<g id="node49" class="node">
<title>VULKAN_IMAGE_width</title>
<polygon fill="lightgray" stroke="black" points="474.12,-947.5 420.12,-947.5 420.12,-911.5 474.12,-911.5 474.12,-947.5"/>
<text xml:space="preserve" text-anchor="middle" x="447.12" y="-925.62" font-family="Times New Roman,serif" font-size="10.00">width</text>
</g>
<!-- VULKAN_IMAGE_height -->
<g id="node50" class="node">
<title>VULKAN_IMAGE_height</title>
<polygon fill="lightgray" stroke="black" points="546.12,-1067.5 492.12,-1067.5 492.12,-1031.5 546.12,-1031.5 546.12,-1067.5"/>
<text xml:space="preserve" text-anchor="middle" x="519.12" y="-1045.62" font-family="Times New Roman,serif" font-size="10.00">height</text>
</g>
<!-- VULKAN_IMAGE_format -->
<g id="node51" class="node">
<title>VULKAN_IMAGE_format</title>
<polygon fill="lightgray" stroke="black" points="468.12,-1085.5 414.12,-1085.5 414.12,-1049.5 468.12,-1049.5 468.12,-1085.5"/>
<text xml:space="preserve" text-anchor="middle" x="441.12" y="-1063.62" font-family="Times New Roman,serif" font-size="10.00">format</text>
</g>
<!-- VULKAN_IMAGE_is_valid -->
<g id="node52" class="node">
<title>VULKAN_IMAGE_is_valid</title>
<polygon fill="lightgray" stroke="black" points="762.12,-935.5 708.12,-935.5 708.12,-899.5 762.12,-899.5 762.12,-935.5"/>
<text xml:space="preserve" text-anchor="middle" x="735.12" y="-913.62" font-family="Times New Roman,serif" font-size="10.00">is_valid</text>
</g>
<!-- VULKAN_IMAGE_Format_rgba8 -->
<g id="node53" class="node">
<title>VULKAN_IMAGE_Format_rgba8</title>
<polygon fill="lightgray" stroke="black" points="648.62,-815.5 575.62,-815.5 575.62,-779.5 648.62,-779.5 648.62,-815.5"/>
<text xml:space="preserve" text-anchor="middle" x="612.12" y="-793.62" font-family="Times New Roman,serif" font-size="10.00">Format_rgba8</text>
</g>
<!-- VULKAN_IMAGE_x01 -->
<g id="node54" class="node">
<title>VULKAN_IMAGE_x01</title>
<polygon fill="lightgray" stroke="black" points="468.12,-1025.5 414.12,-1025.5 414.12,-989.5 468.12,-989.5 468.12,-1025.5"/>
<text xml:space="preserve" text-anchor="middle" x="441.12" y="-1003.62" font-family="Times New Roman,serif" font-size="10.00">x01</text>
</g>
<!-- VULKAN_IMAGE_Format_rgba32f -->
<g id="node55" class="node">
<title>VULKAN_IMAGE_Format_rgba32f</title>
<polygon fill="lightgray" stroke="black" points="734.75,-1037.5 653.5,-1037.5 653.5,-1001.5 734.75,-1001.5 734.75,-1037.5"/>
<text xml:space="preserve" text-anchor="middle" x="694.12" y="-1015.62" font-family="Times New Roman,serif" font-size="10.00">Format_rgba32f</text>
</g>
<!-- VULKAN_IMAGE_x02 -->
<g id="node56" class="node">
<title>VULKAN_IMAGE_x02</title>
<polygon fill="lightgray" stroke="black" points="624.12,-755.5 570.12,-755.5 570.12,-719.5 624.12,-719.5 624.12,-755.5"/>
<text xml:space="preserve" text-anchor="middle" x="597.12" y="-733.62" font-family="Times New Roman,serif" font-size="10.00">x02</text>
</g>
<!-- VULKAN_IMAGE_bytes_per_pixel -->
<g id="node57" class="node">
<title>VULKAN_IMAGE_bytes_per_pixel</title>
<polygon fill="khaki" stroke="black" points="574.12,-1007.5 492.12,-1007.5 492.12,-971.5 574.12,-971.5 574.12,-1007.5"/>
<text xml:space="preserve" text-anchor="middle" x="533.12" y="-985.62" font-family="Times New Roman,serif" font-size="10.00">bytes_per_pixel</text>
</g>
<!-- VULKAN_IMAGE_total_bytes -->
<g id="node58" class="node">
<title>VULKAN_IMAGE_total_bytes</title>
<polygon fill="khaki" stroke="black" points="631,-1067.5 569.25,-1067.5 569.25,-1031.5 631,-1031.5 631,-1067.5"/>
<text xml:space="preserve" text-anchor="middle" x="600.12" y="-1045.62" font-family="Times New Roman,serif" font-size="10.00">total_bytes</text>
</g>
<!-- VULKAN_IMAGE_download -->
<g id="node59" class="node">
<title>VULKAN_IMAGE_download</title>
<polygon fill="lightgray" stroke="black" points="470.75,-797.5 413.5,-797.5 413.5,-761.5 470.75,-761.5 470.75,-797.5"/>
<text xml:space="preserve" text-anchor="middle" x="442.12" y="-775.62" font-family="Times New Roman,serif" font-size="10.00">download</text>
</g>
<!-- VULKAN_IMAGE_valid -->
<g id="node60" class="node">
<title>VULKAN_IMAGE_valid</title>
<polygon fill="lightgray" stroke="black" points="546.12,-797.5 492.12,-797.5 492.12,-761.5 546.12,-761.5 546.12,-797.5"/>
<text xml:space="preserve" text-anchor="middle" x="519.12" y="-775.62" font-family="Times New Roman,serif" font-size="10.00">valid</text>
</g>
<!-- VULKAN_IMAGE_data_attached -->
<g id="node61" class="node">
<title>VULKAN_IMAGE_data_attached</title>
<polygon fill="lightgray" stroke="black" points="744.62,-815.5 671.62,-815.5 671.62,-779.5 744.62,-779.5 744.62,-815.5"/>
<text xml:space="preserve" text-anchor="middle" x="708.12" y="-793.62" font-family="Times New Roman,serif" font-size="10.00">data_attached</text>
</g>
<!-- VULKAN_IMAGE_default_pointer -->
<g id="node62" class="node">
<title>VULKAN_IMAGE_default_pointer</title>
<polygon fill="lightcoral" stroke="black" points="702.62,-875.5 623.62,-875.5 623.62,-839.5 702.62,-839.5 702.62,-875.5"/>
<text xml:space="preserve" text-anchor="middle" x="663.12" y="-853.62" font-family="Times New Roman,serif" font-size="10.00">default_pointer</text>
</g>
<!-- VULKAN_IMAGE_dispose -->
<g id="node63" class="node">
<title>VULKAN_IMAGE_dispose</title>
<polygon fill="khaki" stroke="black" points="450.12,-887.5 396.12,-887.5 396.12,-851.5 450.12,-851.5 450.12,-887.5"/>
<text xml:space="preserve" text-anchor="middle" x="423.12" y="-865.62" font-family="Times New Roman,serif" font-size="10.00">dispose</text>
</g>
<!-- VULKAN_IMAGE_svk_create_image -->
<g id="node64" class="node">
<title>VULKAN_IMAGE_svk_create_image</title>
<polygon fill="lightcoral" stroke="black" points="682.88,-977.5 593.38,-977.5 593.38,-941.5 682.88,-941.5 682.88,-977.5"/>
<text xml:space="preserve" text-anchor="middle" x="638.12" y="-955.62" font-family="Times New Roman,serif" font-size="10.00">svk_create_image</text>
</g>
<!-- VULKAN_IMAGE_svk_download_image -->
<g id="node65" class="node">
<title>VULKAN_IMAGE_svk_download_image</title>
<polygon fill="lightcoral" stroke="black" points="604.5,-917.5 497.75,-917.5 497.75,-881.5 604.5,-881.5 604.5,-917.5"/>
<text xml:space="preserve" text-anchor="middle" x="551.12" y="-895.62" font-family="Times New Roman,serif" font-size="10.00">svk_download_image</text>
</g>
<!-- VULKAN_IMAGE_svk_free_image -->
<g id="node66" class="node">
<title>VULKAN_IMAGE_svk_free_image</title>
<polygon fill="lightcoral" stroke="black" points="554.38,-857.5 473.88,-857.5 473.88,-821.5 554.38,-821.5 554.38,-857.5"/>
<text xml:space="preserve" text-anchor="middle" x="514.12" y="-835.62" font-family="Times New Roman,serif" font-size="10.00">svk_free_image</text>
</g>
<!-- VULKAN_PIPELINE_make -->
<g id="node67" class="node">
<title>VULKAN_PIPELINE_make</title>
<polygon fill="palegreen" stroke="black" points="1260.13,-647.5 1206.13,-647.5 1206.13,-611.5 1260.13,-611.5 1260.13,-647.5"/>
<text xml:space="preserve" text-anchor="middle" x="1233.13" y="-625.62" font-family="Times New Roman,serif" font-size="10.00">make</text>
</g>
<!-- VULKAN_PIPELINE_handle -->
<g id="node68" class="node">
<title>VULKAN_PIPELINE_handle</title>
<polygon fill="lightgray" stroke="black" points="1236.12,-983.5 1182.12,-983.5 1182.12,-947.5 1236.12,-947.5 1236.12,-983.5"/>
<text xml:space="preserve" text-anchor="middle" x="1209.12" y="-961.62" font-family="Times New Roman,serif" font-size="10.00">handle</text>
</g>
<!-- VULKAN_PIPELINE_context -->
<g id="node69" class="node">
<title>VULKAN_PIPELINE_context</title>
<polygon fill="lightgray" stroke="black" points="1236.12,-809.5 1182.12,-809.5 1182.12,-773.5 1236.12,-773.5 1236.12,-809.5"/>
<text xml:space="preserve" text-anchor="middle" x="1209.12" y="-787.62" font-family="Times New Roman,serif" font-size="10.00">context</text>
</g>
<!-- VULKAN_PIPELINE_shader -->
<g id="node70" class="node">
<title>VULKAN_PIPELINE_shader</title>
<polygon fill="lightgray" stroke="black" points="936.13,-683.5 882.13,-683.5 882.13,-647.5 936.13,-647.5 936.13,-683.5"/>
<text xml:space="preserve" text-anchor="middle" x="909.13" y="-661.62" font-family="Times New Roman,serif" font-size="10.00">shader</text>
</g>
<!-- VULKAN_PIPELINE_is_valid -->
<g id="node71" class="node">
<title>VULKAN_PIPELINE_is_valid</title>
<polygon fill="lightgray" stroke="black" points="1182.12,-689.5 1128.12,-689.5 1128.12,-653.5 1182.12,-653.5 1182.12,-689.5"/>
<text xml:space="preserve" text-anchor="middle" x="1155.12" y="-667.62" font-family="Times New Roman,serif" font-size="10.00">is_valid</text>
</g>
<!-- VULKAN_PIPELINE_Binding_buffer -->
<g id="node72" class="node">
<title>VULKAN_PIPELINE_Binding_buffer</title>
<polygon fill="lightgray" stroke="black" points="1182.62,-749.5 1103.62,-749.5 1103.62,-713.5 1182.62,-713.5 1182.62,-749.5"/>
<text xml:space="preserve" text-anchor="middle" x="1143.12" y="-727.62" font-family="Times New Roman,serif" font-size="10.00">Binding_buffer</text>
</g>
<!-- VULKAN_PIPELINE_x01 -->
<g id="node73" class="node">
<title>VULKAN_PIPELINE_x01</title>
<polygon fill="lightgray" stroke="black" points="936.13,-893.5 882.13,-893.5 882.13,-857.5 936.13,-857.5 936.13,-893.5"/>
<text xml:space="preserve" text-anchor="middle" x="909.13" y="-871.62" font-family="Times New Roman,serif" font-size="10.00">x01</text>
</g>
<!-- VULKAN_PIPELINE_Binding_image -->
<g id="node74" class="node">
<title>VULKAN_PIPELINE_Binding_image</title>
<polygon fill="lightgray" stroke="black" points="1039,-893.5 959.25,-893.5 959.25,-857.5 1039,-857.5 1039,-893.5"/>
<text xml:space="preserve" text-anchor="middle" x="999.13" y="-871.62" font-family="Times New Roman,serif" font-size="10.00">Binding_image</text>
</g>
<!-- VULKAN_PIPELINE_x02 -->
<g id="node75" class="node">
<title>VULKAN_PIPELINE_x02</title>
<polygon fill="lightgray" stroke="black" points="942.13,-833.5 888.13,-833.5 888.13,-797.5 942.13,-797.5 942.13,-833.5"/>
<text xml:space="preserve" text-anchor="middle" x="915.13" y="-811.62" font-family="Times New Roman,serif" font-size="10.00">x02</text>
</g>
<!-- VULKAN_PIPELINE_Max_bindings -->
<g id="node76" class="node">
<title>VULKAN_PIPELINE_Max_bindings</title>
<polygon fill="lightgray" stroke="black" points="1198.12,-923.5 1122.12,-923.5 1122.12,-887.5 1198.12,-887.5 1198.12,-923.5"/>
<text xml:space="preserve" text-anchor="middle" x="1160.12" y="-901.62" font-family="Times New Roman,serif" font-size="10.00">Max_bindings</text>
</g>
<!-- VULKAN_PIPELINE_bind_buffer -->
<g id="node77" class="node">
<title>VULKAN_PIPELINE_bind_buffer</title>
<polygon fill="khaki" stroke="black" points="1108.12,-689.5 1044.12,-689.5 1044.12,-653.5 1108.12,-653.5 1108.12,-689.5"/>
<text xml:space="preserve" text-anchor="middle" x="1076.12" y="-667.62" font-family="Times New Roman,serif" font-size="10.00">bind_buffer</text>
</g>
<!-- VULKAN_PIPELINE_bind_image -->
<g id="node78" class="node">
<title>VULKAN_PIPELINE_bind_image</title>
<polygon fill="khaki" stroke="black" points="1006.5,-953.5 941.75,-953.5 941.75,-917.5 1006.5,-917.5 1006.5,-953.5"/>
<text xml:space="preserve" text-anchor="middle" x="974.13" y="-931.62" font-family="Times New Roman,serif" font-size="10.00">bind_image</text>
</g>
<!-- VULKAN_PIPELINE_set_push_constants -->
<g id="node79" class="node">
<title>VULKAN_PIPELINE_set_push_constants</title>
<polygon fill="lightgray" stroke="black" points="1156.88,-863.5 1061.38,-863.5 1061.38,-827.5 1156.88,-827.5 1156.88,-863.5"/>
<text xml:space="preserve" text-anchor="middle" x="1109.13" y="-841.62" font-family="Times New Roman,serif" font-size="10.00">set_push_constants</text>
</g>
<!-- VULKAN_PIPELINE_valid -->
<g id="node80" class="node">
<title>VULKAN_PIPELINE_valid</title>
<polygon fill="lightgray" stroke="black" points="1014.13,-683.5 960.13,-683.5 960.13,-647.5 1014.13,-647.5 1014.13,-683.5"/>
<text xml:space="preserve" text-anchor="middle" x="987.13" y="-661.62" font-family="Times New Roman,serif" font-size="10.00">valid</text>
</g>
<!-- VULKAN_PIPELINE_data_attached -->
<g id="node81" class="node">
<title>VULKAN_PIPELINE_data_attached</title>
<polygon fill="lightgray" stroke="black" points="1098.62,-953.5 1025.62,-953.5 1025.62,-917.5 1098.62,-917.5 1098.62,-953.5"/>
<text xml:space="preserve" text-anchor="middle" x="1062.12" y="-931.62" font-family="Times New Roman,serif" font-size="10.00">data_attached</text>
</g>
<!-- VULKAN_PIPELINE_default_pointer -->
<g id="node82" class="node">
<title>VULKAN_PIPELINE_default_pointer</title>
<polygon fill="lightgray" stroke="black" points="1020.63,-743.5 941.63,-743.5 941.63,-707.5 1020.63,-707.5 1020.63,-743.5"/>
<text xml:space="preserve" text-anchor="middle" x="981.13" y="-721.62" font-family="Times New Roman,serif" font-size="10.00">default_pointer</text>
</g>
<!-- VULKAN_PIPELINE_valid_size -->
<g id="node83" class="node">
<title>VULKAN_PIPELINE_valid_size</title>
<polygon fill="lightgray" stroke="black" points="922.13,-989.5 864.13,-989.5 864.13,-953.5 922.13,-953.5 922.13,-989.5"/>
<text xml:space="preserve" text-anchor="middle" x="893.13" y="-967.62" font-family="Times New Roman,serif" font-size="10.00">valid_size</text>
</g>
<!-- VULKAN_PIPELINE_a_size -->
<g id="node84" class="node">
<title>VULKAN_PIPELINE_a_size</title>
<polygon fill="lightgray" stroke="black" points="918.13,-773.5 864.13,-773.5 864.13,-737.5 918.13,-737.5 918.13,-773.5"/>
<text xml:space="preserve" text-anchor="middle" x="891.13" y="-751.62" font-family="Times New Roman,serif" font-size="10.00">a_size</text>
</g>
<!-- VULKAN_PIPELINE_svk_set_push_constants -->
<g id="node85" class="node">
<title>VULKAN_PIPELINE_svk_set_push_constants</title>
<polygon fill="lightgray" stroke="black" points="1080.62,-803.5 965.63,-803.5 965.63,-767.5 1080.62,-767.5 1080.62,-803.5"/>
<text xml:space="preserve" text-anchor="middle" x="1023.13" y="-781.62" font-family="Times New Roman,serif" font-size="10.00">svk_set_push_constants</text>
</g>
<!-- VULKAN_SHADER_make -->
<g id="node86" class="node">
<title>VULKAN_SHADER_make</title>
<polygon fill="palegreen" stroke="black" points="114.12,-683.5 60.12,-683.5 60.12,-647.5 114.12,-647.5 114.12,-683.5"/>
<text xml:space="preserve" text-anchor="middle" x="87.12" y="-661.62" font-family="Times New Roman,serif" font-size="10.00">make</text>
</g>
<!-- VULKAN_SHADER_make_from_memory -->
<g id="node87" class="node">
<title>VULKAN_SHADER_make_from_memory</title>
<polygon fill="palegreen" stroke="black" points="256.12,-587.5 156.12,-587.5 156.12,-551.5 256.12,-551.5 256.12,-587.5"/>
<text xml:space="preserve" text-anchor="middle" x="206.12" y="-565.62" font-family="Times New Roman,serif" font-size="10.00">make_from_memory</text>
</g>
<!-- VULKAN_SHADER_handle -->
<g id="node88" class="node">
<title>VULKAN_SHADER_handle</title>
<polygon fill="lightgray" stroke="black" points="192.12,-683.5 138.12,-683.5 138.12,-647.5 192.12,-647.5 192.12,-683.5"/>
<text xml:space="preserve" text-anchor="middle" x="165.12" y="-661.62" font-family="Times New Roman,serif" font-size="10.00">handle</text>
</g>
<!-- VULKAN_SHADER_context -->
<g id="node89" class="node">
<title>VULKAN_SHADER_context</title>
<polygon fill="lightgray" stroke="black" points="270.12,-647.5 216.12,-647.5 216.12,-611.5 270.12,-611.5 270.12,-647.5"/>
<text xml:space="preserve" text-anchor="middle" x="243.12" y="-625.62" font-family="Times New Roman,serif" font-size="10.00">context</text>
</g>
<!-- VULKAN_SHADER_is_valid -->
<g id="node90" class="node">
<title>VULKAN_SHADER_is_valid</title>
<polygon fill="lightgray" stroke="black" points="90.12,-467.5 36.12,-467.5 36.12,-431.5 90.12,-431.5 90.12,-467.5"/>
<text xml:space="preserve" text-anchor="middle" x="63.12" y="-445.62" font-family="Times New Roman,serif" font-size="10.00">is_valid</text>
</g>
<!-- VULKAN_SHADER_dispose -->
<g id="node91" class="node">
<title>VULKAN_SHADER_dispose</title>
<polygon fill="khaki" stroke="black" points="174.12,-467.5 120.12,-467.5 120.12,-431.5 174.12,-431.5 174.12,-467.5"/>
<text xml:space="preserve" text-anchor="middle" x="147.12" y="-445.62" font-family="Times New Roman,serif" font-size="10.00">dispose</text>
</g>
<!-- VULKAN_SHADER_svk_load_shader -->
<g id="node92" class="node">
<title>VULKAN_SHADER_svk_load_shader</title>
<polygon fill="lightcoral" stroke="black" points="132.62,-623.5 47.62,-623.5 47.62,-587.5 132.62,-587.5 132.62,-623.5"/>
<text xml:space="preserve" text-anchor="middle" x="90.12" y="-601.62" font-family="Times New Roman,serif" font-size="10.00">svk_load_shader</text>
</g>
<!-- VULKAN_SHADER_svk_load_shader_memory -->
<g id="node93" class="node">
<title>VULKAN_SHADER_svk_load_shader_memory</title>
<polygon fill="lightcoral" stroke="black" points="176.75,-527.5 53.5,-527.5 53.5,-491.5 176.75,-491.5 176.75,-527.5"/>
<text xml:space="preserve" text-anchor="middle" x="115.12" y="-505.62" font-family="Times New Roman,serif" font-size="10.00">svk_load_shader_memory</text>
</g>
<!-- VULKAN_SHADER_svk_free_shader -->
<g id="node94" class="node">
<title>VULKAN_SHADER_svk_free_shader</title>
<polygon fill="lightcoral" stroke="black" points="280.12,-473.5 198.12,-473.5 198.12,-437.5 280.12,-437.5 280.12,-473.5"/>
<text xml:space="preserve" text-anchor="middle" x="239.12" y="-451.62" font-family="Times New Roman,serif" font-size="10.00">svk_free_shader</text>
</g>
<!-- LIB_TESTS_make -->
<g id="node95" class="node">
<title>LIB_TESTS_make</title>
<polygon fill="lightcoral" stroke="black" points="124,-1309.5 70,-1309.5 70,-1273.5 124,-1273.5 124,-1309.5"/>
<text xml:space="preserve" text-anchor="middle" x="97" y="-1287.62" font-family="Times New Roman,serif" font-size="10.00">make</text>
</g>
<!-- LIB_TESTS_vk -->
<g id="node96" class="node">
<title>LIB_TESTS_vk</title>
<polygon fill="lightgray" stroke="black" points="194,-1309.5 140,-1309.5 140,-1273.5 194,-1273.5 194,-1309.5"/>
<text xml:space="preserve" text-anchor="middle" x="167" y="-1287.62" font-family="Times New Roman,serif" font-size="10.00">vk</text>
</g>
<!-- LIB_TESTS_passed -->
<g id="node97" class="node">
<title>LIB_TESTS_passed</title>
<polygon fill="lightgray" stroke="black" points="173,-1043.5 119,-1043.5 119,-1007.5 173,-1007.5 173,-1043.5"/>
<text xml:space="preserve" text-anchor="middle" x="146" y="-1021.62" font-family="Times New Roman,serif" font-size="10.00">passed</text>
</g>
<!-- LIB_TESTS_failed -->
<g id="node98" class="node">
<title>LIB_TESTS_failed</title>
<polygon fill="lightgray" stroke="black" points="299,-1050.5 245,-1050.5 245,-1014.5 299,-1014.5 299,-1050.5"/>
<text xml:space="preserve" text-anchor="middle" x="272" y="-1028.62" font-family="Times New Roman,serif" font-size="10.00">failed</text>
</g>
<!-- LIB_TESTS_run_all -->
<g id="node99" class="node">
<title>LIB_TESTS_run_all</title>
<polygon fill="lightcoral" stroke="black" points="54,-1309.5 0,-1309.5 0,-1273.5 54,-1273.5 54,-1309.5"/>
<text xml:space="preserve" text-anchor="middle" x="27" y="-1287.62" font-family="Times New Roman,serif" font-size="10.00">run_all</text>
</g>
<!-- LIB_TESTS_test_context_creation -->
<g id="node100" class="node">
<title>LIB_TESTS_test_context_creation</title>
<polygon fill="lightcoral" stroke="black" points="258.25,-1211.5 153.75,-1211.5 153.75,-1175.5 258.25,-1175.5 258.25,-1211.5"/>
<text xml:space="preserve" text-anchor="middle" x="206" y="-1189.62" font-family="Times New Roman,serif" font-size="10.00">test_context_creation</text>
</g>
<!-- LIB_TESTS_test_device_info -->
<g id="node101" class="node">
<title>LIB_TESTS_test_device_info</title>
<polygon fill="lightcoral" stroke="black" points="91.12,-1099.5 6.87,-1099.5 6.87,-1063.5 91.12,-1063.5 91.12,-1099.5"/>
<text xml:space="preserve" text-anchor="middle" x="49" y="-1077.63" font-family="Times New Roman,serif" font-size="10.00">test_device_info</text>
</g>
<!-- LIB_TESTS_test_buffer_creation -->
<g id="node102" class="node">
<title>LIB_TESTS_test_buffer_creation</title>
<polygon fill="lightcoral" stroke="black" points="138.88,-1253.5 41.12,-1253.5 41.12,-1217.5 138.88,-1217.5 138.88,-1253.5"/>
<text xml:space="preserve" text-anchor="middle" x="90" y="-1231.63" font-family="Times New Roman,serif" font-size="10.00">test_buffer_creation</text>
</g>
<!-- LIB_TESTS_test_buffer_upload_download -->
<g id="node103" class="node">
<title>LIB_TESTS_test_buffer_upload_download</title>
<polygon fill="lightcoral" stroke="black" points="180.87,-1155.5 41.12,-1155.5 41.12,-1119.5 180.87,-1119.5 180.87,-1155.5"/>
<text xml:space="preserve" text-anchor="middle" x="111" y="-1133.62" font-family="Times New Roman,serif" font-size="10.00">test_buffer_upload_download</text>
</g>
<!-- LIB_TESTS_test_image_creation -->
<g id="node104" class="node">
<title>LIB_TESTS_test_image_creation</title>
<polygon fill="lightcoral" stroke="black" points="294.25,-1155.5 195.75,-1155.5 195.75,-1119.5 294.25,-1119.5 294.25,-1155.5"/>
<text xml:space="preserve" text-anchor="middle" x="245" y="-1133.62" font-family="Times New Roman,serif" font-size="10.00">test_image_creation</text>
</g>
<!-- LIB_TESTS_test_shader_loading -->
<g id="node105" class="node">
<title>LIB_TESTS_test_shader_loading</title>
<polygon fill="lightcoral" stroke="black" points="308.25,-1267.5 209.75,-1267.5 209.75,-1231.5 308.25,-1231.5 308.25,-1267.5"/>
<text xml:space="preserve" text-anchor="middle" x="259" y="-1245.62" font-family="Times New Roman,serif" font-size="10.00">test_shader_loading</text>
</g>
<!-- LIB_TESTS_test_pipeline_creation -->
<g id="node106" class="node">
<title>LIB_TESTS_test_pipeline_creation</title>
<polygon fill="lightcoral" stroke="black" points="225.75,-1099.5 118.25,-1099.5 118.25,-1063.5 225.75,-1063.5 225.75,-1099.5"/>
<text xml:space="preserve" text-anchor="middle" x="172" y="-1077.63" font-family="Times New Roman,serif" font-size="10.00">test_pipeline_creation</text>
</g>
<!-- TEST_APP_make -->
<g id="node107" class="node">
<title>TEST_APP_make</title>
<polygon fill="lightcoral" stroke="black" points="694.62,-91 640.62,-91 640.62,-55 694.62,-55 694.62,-91"/>
<text xml:space="preserve" text-anchor="middle" x="667.62" y="-69.12" font-family="Times New Roman,serif" font-size="10.00">make</text>
</g>
<!-- TEST_APP_run_tests -->
<g id="node108" class="node">
<title>TEST_APP_run_tests</title>
<polygon fill="lightcoral" stroke="black" points="629.62,-36 575.62,-36 575.62,0 629.62,0 629.62,-36"/>
<text xml:space="preserve" text-anchor="middle" x="602.62" y="-14.12" font-family="Times New Roman,serif" font-size="10.00">run_tests</text>
</g>
<!-- legend_full -->
<g id="node109" class="node">
<title>legend_full</title>
<polygon fill="palegreen" stroke="black" points="282,-248.62 167.75,-248.62 167.75,-207.62 282,-207.62 282,-248.62"/>
<text xml:space="preserve" text-anchor="middle" x="224.87" y="-231.32" font-family="Times New Roman,serif" font-size="14.00">Full Contract</text>
<text xml:space="preserve" text-anchor="middle" x="224.87" y="-214.82" font-family="Times New Roman,serif" font-size="14.00">(require + ensure)</text>
</g>
<!-- legend_partial -->
<g id="node110" class="node">
<title>legend_partial</title>
<polygon fill="khaki" stroke="black" points="292.5,-184.62 175.25,-184.62 175.25,-143.62 292.5,-143.62 292.5,-184.62"/>
<text xml:space="preserve" text-anchor="middle" x="233.87" y="-167.32" font-family="Times New Roman,serif" font-size="14.00">Partial Contract</text>
<text xml:space="preserve" text-anchor="middle" x="233.87" y="-150.82" font-family="Times New Roman,serif" font-size="14.00">(require or ensure)</text>
</g>
<!-- legend_none -->
<g id="node111" class="node">
<title>legend_none</title>
<polygon fill="lightcoral" stroke="black" points="258.25,-307.12 175.5,-307.12 175.5,-271.12 258.25,-271.12 258.25,-307.12"/>
<text xml:space="preserve" text-anchor="middle" x="216.87" y="-284.07" font-family="Times New Roman,serif" font-size="14.00">No Contract</text>
</g>
<!-- legend_attr -->
<g id="node112" class="node">
<title>legend_attr</title>
<polygon fill="lightgray" stroke="black" points="152.25,-320.62 87.5,-320.62 87.5,-279.62 152.25,-279.62 152.25,-320.62"/>
<text xml:space="preserve" text-anchor="middle" x="119.87" y="-303.32" font-family="Times New Roman,serif" font-size="14.00">Attribute</text>
<text xml:space="preserve" text-anchor="middle" x="119.87" y="-286.82" font-family="Times New Roman,serif" font-size="14.00">(n/a)</text>
</g>
<!-- legend_stats -->
<g id="node113" class="node">
<title>legend_stats</title>
<polygon fill="white" stroke="black" points="138,-258.62 71.75,-258.62 71.75,-151.62 144,-151.62 144,-252.62 138,-258.62"/>
<polyline fill="none" stroke="black" points="138,-258.62 138,-252.62"/>
<polyline fill="none" stroke="black" points="144,-252.62 138,-252.62"/>
<text xml:space="preserve" text-anchor="middle" x="107.87" y="-241.32" font-family="Times New Roman,serif" font-size="14.00">Statistics</text>
<text xml:space="preserve" text-anchor="middle" x="107.87" y="-224.82" font-family="Times New Roman,serif" font-size="14.00">Full: 6</text>
<text xml:space="preserve" text-anchor="middle" x="107.87" y="-208.32" font-family="Times New Roman,serif" font-size="14.00">Partial: 17</text>
<text xml:space="preserve" text-anchor="middle" x="107.87" y="-191.82" font-family="Times New Roman,serif" font-size="14.00">None: 29</text>
<text xml:space="preserve" text-anchor="middle" x="107.87" y="-175.32" font-family="Times New Roman,serif" font-size="14.00">Attr: 56</text>
<text xml:space="preserve" text-anchor="middle" x="107.87" y="-158.82" font-family="Times New Roman,serif" font-size="14.00">Total: 108</text>
</g>
</g>
</svg>
