<?xml version="1.0" encoding="UTF-8" standalone="no"?>
<!DOCTYPE svg PUBLIC "-//W3C//DTD SVG 1.1//EN"
 "http://www.w3.org/Graphics/SVG/1.1/DTD/svg11.dtd">
<!-- Generated by graphviz version 14.1.1 (20251213.1925)
 -->
<!-- Title: Dependencies Pages: 1 -->
<svg width="344pt" height="213pt"
 viewBox="0.00 0.00 344.00 213.00" xmlns="http://www.w3.org/2000/svg" xmlns:xlink="http://www.w3.org/1999/xlink">
<g id="graph0" class="graph" transform="scale(1 1) rotate(0) translate(4 208.5)">
<title>Dependencies</title>
<polygon fill="white" stroke="none" points="-4,4 -4,-208.5 339.75,-208.5 339.75,4 -4,4"/>
<text xml:space="preserve" text-anchor="middle" x="167.88" y="-7.2" font-family="Times New Roman,serif" font-size="14.00">simple_vulkan &#45; Dependencies</text>
<!-- simple_vulkan -->
<g id="node1" class="node">
<title>simple_vulkan</title>
<polygon fill="lightblue" stroke="black" points="96.25,-132.5 0,-132.5 0,-96.5 96.25,-96.5 96.25,-132.5"/>
<text xml:space="preserve" text-anchor="middle" x="48.12" y="-109.45" font-family="Times New Roman,serif" font-size="14.00">simple_vulkan</text>
</g>
<!-- simple_testing -->
<g id="node2" class="node">
<title>simple_testing</title>
<polygon fill="lightblue" stroke="black" points="335.75,-204.5 240.25,-204.5 240.25,-168.5 335.75,-168.5 335.75,-204.5"/>
<text xml:space="preserve" text-anchor="middle" x="288" y="-181.45" font-family="Times New Roman,serif" font-size="14.00">simple_testing</text>
</g>
<!-- simple_vulkan&#45;&gt;simple_testing -->
<g id="edge1" class="edge">
<title>simple_vulkan&#45;&gt;simple_testing</title>
<path fill="none" stroke="black" stroke-dasharray="5,2" d="M96.66,-120.5C156.6,-120.5 250.75,-120.5 250.75,-120.5 250.75,-120.5 250.75,-156.6 250.75,-156.6"/>
<polygon fill="black" stroke="black" points="247.25,-156.6 250.75,-166.6 254.25,-156.6 247.25,-156.6"/>
</g>
<!-- base -->
<g id="node3" class="node">
<title>base</title>
<polygon fill="lightgray" stroke="black" points="315,-132.5 261,-132.5 261,-96.5 315,-96.5 315,-132.5"/>
<text xml:space="preserve" text-anchor="middle" x="288" y="-109.45" font-family="Times New Roman,serif" font-size="14.00">base</text>
</g>
<!-- simple_vulkan&#45;&gt;base -->
<g id="edge2" class="edge">
<title>simple_vulkan&#45;&gt;base</title>
<path fill="none" stroke="black" stroke-dasharray="5,2" d="M96.67,-108.5C96.67,-108.5 249.27,-108.5 249.27,-108.5"/>
<polygon fill="black" stroke="black" points="249.27,-112 259.27,-108.5 249.27,-105 249.27,-112"/>
</g>
<!-- testing -->
<g id="node4" class="node">
<title>testing</title>
<polygon fill="lightgray" stroke="black" points="315,-60.5 261,-60.5 261,-24.5 315,-24.5 315,-60.5"/>
<text xml:space="preserve" text-anchor="middle" x="288" y="-37.45" font-family="Times New Roman,serif" font-size="14.00">testing</text>
</g>
<!-- simple_vulkan&#45;&gt;testing -->
<g id="edge3" class="edge">
<title>simple_vulkan&#45;&gt;testing</title>
<path fill="none" stroke="black" stroke-dasharray="5,2" d="M47.75,-96.33C47.75,-75 47.75,-42.5 47.75,-42.5 47.75,-42.5 249.39,-42.5 249.39,-42.5"/>
<polygon fill="black" stroke="black" points="249.39,-46 259.39,-42.5 249.39,-39 249.39,-46"/>
</g>
</g>
</svg>
